@startuml
'Classes:
'-------------

class Hospital {
  - hospitalId: int  
  - name: String
  - address: String
  - contact: String
  + registerPatient()  
}

class Doctor {
  - doctorId: int  
  - name: String
  - department: String
  - specialization: String
  - contact: String
  + diagnosePatient() 
  + prescribeMedicine()
  + addMedicalRecord(medId: int, diagnosis: String, prescription: String)
  + viewMedicalRecord(patientId: int)
  + updateMedicalRecord(medId: int, diagnosis: String, prescription: String)
  + updatePatientRecords()
}

class Department {
  - departmentId: int  
  - name: String
  - hod; String
  - location: String
  + addDoctor()
  + removeDoctor()
  + updateDoctorDetails()

}

class Patient {
  - patientId: int  
  - name: String
  - age:int
  - gender: String
  - address: String
  - contact: String
  - diagnosis: String
  + bookAppointmnet()  
  + viewMedicalRecord(patientId: int)
}

class Appointment {
  - appointmentNo: int
  - date: String
  - time: String
  - status: String
  + scheduleAppointment()
  + cancelAppointment()
  + rescheduleAppointment()
}


class MedicalRecord {
  - medId: int
  - diagnosis: String
  - prescription: String
  + addRecord()
  + viewRecord()
  + updateRecord()
}



'Associations:
'-------------

Hospital "1" --> "*" Department : has
Department "1" --> "*" Doctor : manages
Doctor "1" --> "*" Patient : treats
Patient "1" --> "*" Appointment : schedules
Appointment "1" --> "1" Doctor : involves
Patient "1" --> "*" MedicalRecord : owns
Doctor "1" --> "*" MedicalRecord : creates/updates
@enduml


